Coordinates
nRows=285
nColumns=2
inDegrees=yes
endheader
time	ankle_angle_r	
2.96069	 -5.176248	
2.99395	 -5.126953	
3.02722	 -5.119529	
3.06048	 -5.229956	
3.09375	 -5.100341	
3.12702	 -5.187988	
3.16028	 -5.183889	
3.19355	 -5.131149	
3.22681	 -5.070210	
3.26008	 -5.183599	
3.29335	 -5.157471	
3.32661	 -5.187988	
3.35988	 -5.157471	
3.39315	 -5.152695	
3.42641	 -5.192861	
3.45968	 -5.213185	
3.49294	 -5.167664	
3.52621	 -5.167567	
3.55948	 -5.279541	
3.59274	 -5.258926	
3.62601	 -5.223958	
3.65927	 -5.273992	
3.69254	 -5.229797	
3.72581	 -5.233765	
3.75907	 -5.258443	
3.79234	 -5.233765	
3.8256	 -5.252217	
3.85887	 -5.270411	
3.89214	 -5.233765	
3.9254	 -5.224829	
3.95867	 -5.257863	
3.99194	 -5.242507	
4.0252	 -5.264282	
4.05847	 -5.279541	
4.09173	 -5.255829	
4.125	 -5.250477	
4.15827	 -5.270022	
4.19153	 -5.250090	
4.2248	 -5.249023	
4.25806	 -5.294800	
4.29133	 -5.249023	
4.3246	 -5.271765	
4.35786	 -5.294899	
4.39113	 -5.264282	
4.4244	 -5.210733	
4.45766	 -5.226376	
4.49093	 -5.194607	
4.52419	 -5.218506	
4.55746	 -5.211407	
4.59073	 -5.187988	
4.62399	 -5.226859	
4.65726	 -5.157471	
4.69052	 -5.220340	
4.72379	 -5.164086	
4.75706	 -5.179248	
4.79032	 -5.120531	
4.82359	 -5.175337	
4.85685	 -5.197018	
4.89012	 -5.133085	
4.92339	 -5.191176	
4.95665	 -5.243084	
4.98992	 -5.161045	
5.02319	 -5.203247	
5.05645	 -5.146173	
5.08972	 -5.100590	
5.12298	 -5.126953	
5.15625	 -5.228406	
5.18952	 -5.142212	
5.22278	 -5.111694	
5.25605	 -5.218506	
5.28931	 -5.183016	
5.32258	 -5.239273	
5.35585	 -5.187988	
5.38911	 -5.183306	
5.42238	 -5.101021	
5.45565	 -5.133235	
5.48891	 -5.157471	
5.52218	 -5.122658	
5.55544	 -5.249023	
5.58871	 -5.126953	
5.62198	 -5.172729	
5.65524	 -5.260374	
5.68851	 -5.146024	
5.72177	 -5.180558	
5.75504	 -5.187988	
5.78831	 -5.206769	
5.82157	 -5.252449	
5.85484	 -5.157471	
5.8881	 -5.142212	
5.92137	 -5.187988	
5.95464	 -5.218506	
5.9879	 -5.175671	
6.02117	 -5.157471	
6.05444	 -5.243527	
6.0877	 -5.185337	
6.12097	 -5.205802	
6.15423	 -5.279541	
6.1875	 -5.251385	
6.22077	 -5.172729	
6.25403	 -5.229428	
6.2873	 -5.172729	
6.32056	 -5.235739	
6.35383	 -5.230009	
6.3871	 -5.201466	
6.42036	 -5.233765	
6.45363	 -5.279541	
6.4869	 -5.249023	
6.52016	 -5.249023	
6.55343	 -5.276945	
6.58669	 -5.277139	
6.61996	 -5.262073	
6.65323	 -5.266298	
6.68649	 -5.233765	
6.71976	 -5.263468	
6.75302	 -5.278823	
6.78629	 -5.264282	
6.81956	 -5.263758	
6.85282	 -5.279113	
6.88609	 -5.233434	
6.91935	 -5.279072	
6.95262	 -5.264282	
6.98589	 -5.249023	
7.01915	 -5.294633	
7.05242	 -5.279541	
7.08569	 -5.279043	
7.11895	 -5.279541	
7.15222	 -5.294357	
7.18548	 -5.264282	
7.21875	 -5.249659	
7.25202	 -5.265015	
7.28528	 -5.234594	
7.31855	 -5.279541	
7.35181	 -5.294800	
7.38508	 -5.265401	
7.41835	 -5.251455	
7.45161	 -5.264282	
7.48488	 -5.249023	
7.51815	 -5.249023	
7.55141	 -5.264282	
7.58468	 -5.250723	
7.61794	 -5.293004	
7.65121	 -5.218506	
7.68448	 -5.220495	
7.71774	 -5.222678	
7.75101	 -5.218506	
7.78427	 -5.190268	
7.81754	 -5.183236	
7.85081	 -5.177675	
7.88407	 -5.129523	
7.91734	 -5.175395	
7.9506	 -5.144975	
7.98387	 -5.169870	
8.01714	 -5.187988	
8.0504	 -5.209353	
8.08367	 -5.218506	
8.11694	 -5.178249	
8.1502	 -5.118381	
8.18347	 -5.164350	
8.21673	 -5.172729	
8.25	 -5.267915	
8.28327	 -5.142212	
8.31653	 -5.088830	
8.3498	 -5.191911	
8.38306	 -5.196028	
8.41633	 -5.183872	
8.4496	 -5.118527	
8.48286	 -5.157471	
8.51613	 -5.126953	
8.5494	 -5.122450	
8.58266	 -5.157471	
8.61593	 -5.187988	
8.64919	 -5.147005	
8.68246	 -5.142212	
8.71573	 -5.157471	
8.74899	 -5.142203	
8.78226	 -5.172729	
8.81552	 -5.142212	
8.84879	 -5.229253	
8.88206	 -5.126953	
8.91532	 -5.199122	
8.94859	 -5.153539	
8.98185	 -5.209007	
9.01512	 -5.163328	
9.04839	 -5.148165	
9.08165	 -5.133003	
9.11492	 -5.185023	
9.14819	 -5.194232	
9.18145	 -5.154892	
9.21472	 -5.170344	
9.24798	 -5.170538	
9.28125	 -5.225136	
9.31452	 -5.181261	
9.34778	 -5.196424	
9.38105	 -5.226844	
9.41431	 -5.179747	
9.44758	 -5.233765	
9.48085	 -5.156633	
9.51411	 -5.096436	
9.54738	 -5.172278	
9.58065	 -5.164971	
9.61391	 -5.127017	
9.64718	 -5.210941	
9.68044	 -5.187988	
9.71371	 -5.180101	
9.74698	 -5.187988	
9.78024	 -5.135034	
9.81351	 -5.126953	
9.84677	 -5.257298	
9.88004	 -5.201765	
9.91331	 -5.179521	
9.94657	 -5.203247	
9.97984	 -5.168194	
10.0131	 -5.172729	
10.0464	 -5.162369	
10.0796	 -5.246381	
10.1129	 -5.282377	
10.1462	 -5.215477	
10.1794	 -5.221729	
10.2127	 -5.277036	
10.246	 -5.285366	
10.2792	 -5.249023	
10.3125	 -5.258651	
10.3458	 -5.214316	
10.379	 -5.253407	
10.4123	 -5.254364	
10.4456	 -5.314828	
10.4788	 -5.259134	
10.5121	 -5.259231	
10.5454	 -5.274587	
10.5786	 -5.253881	
10.6119	 -5.259521	
10.6452	 -5.268947	
10.6784	 -5.259715	
10.7117	 -5.259811	
10.745	 -5.279541	
10.7782	 -5.264282	
10.8115	 -5.249023	
10.8448	 -5.275457	
10.878	 -5.245728	
10.9113	 -5.268173	
10.9446	 -5.268076	
10.9778	 -5.230067	
11.0111	 -5.249023	
11.0444	 -5.215002	
11.0776	 -5.257467	
11.1109	 -5.215195	
11.1442	 -5.233765	
11.1774	 -5.230647	
11.2107	 -5.123932	
11.244	 -5.249023	
11.2772	 -5.182333	
11.3105	 -5.172729	
11.3437	 -5.147480	
11.377	 -5.187988	
11.4103	 -5.139771	
11.4435	 -5.175074	
11.4768	 -5.216259	
11.5101	 -5.153170	
11.5433	 -5.142212	
11.5766	 -5.159428	
11.6099	 -5.115415	
11.6431	 -5.172729	
11.6764	 -5.113361	
11.7097	 -5.125383	
11.7429	 -5.126953	
11.7762	 -5.139458	
11.8095	 -5.096436	
11.8427	 -5.170362	
11.876	 -5.052833	
11.9093	 -5.080186	
11.9425	 -5.172729	
11.9758	 -5.126156	
12.0091	 -5.172029	
12.0423	 -5.188592	
12.0756	 -5.189002	
12.1089	 -5.097256	
12.1421	 -5.187988	
12.1754	 -5.126736	
12.2087	 -5.172489	
12.2419	 -5.187965	
12.2752	 -5.081250	
12.3085	 -5.096605	
12.3417	 -5.218239	
12.375	 -5.172366	
12.4083	 -5.111234	
